# xmcd
#
# Track frame offsets:
#	150
#	18678
#	32755
#	55977
#	75239
#	76793
#	101556
#	116478
#	136768
#	150080
#	169105
#	186023
#
# Disc length: 2719 seconds
#
# Revision: 1
# Processed by: cddbd v1.5.2PL0 Copyright (c) Steve Scherf et al.
# Submitted via: audiograbber 1.83.01
#
DISCID=800a9d0c
DTITLE=Cathy Ponton King - Undertow
DYEAR=2010
DGENRE=Blues
TTITLE0=Little Bridge
TTITLE1=Cant Let you Walk Away
TTITLE2=Dark Shroud
TTITLE3=Let Me be the One
TTITLE4=Pop Harpin'
TTITLE5=Things Turned out that Way
TTITLE6=Since youve Gone
TTITLE7=Comfort and Blessings
TTITLE8=Chanmpagne Days are Over
TTITLE9=Undertow
TTITLE10=Soft Ground
TTITLE11=Soul Touch
EXTD=Long Gone Records\nPO Box 3463\nMerrifield, VA 22116
EXTT0=
EXTT1=
EXTT2=
EXTT3=
EXTT4=
EXTT5=
EXTT6=
EXTT7=
EXTT8=
EXTT9=
EXTT10=
EXTT11=
PLAYORDER=
